<svg xmlns="http://www.w3.org/2000/svg" width="19.031" height="16.97" viewBox="0 0 19.031 16.97">
  <defs>
    <style>
      .cls-1 {
        fill: #fff;
        fill-rule: evenodd;
      }
    </style>
  </defs>
  <path id="Фигура_10" data-name="Фигура 10" class="cls-1" d="M430.434,1881.54a5.41,5.41,0,0,0-7.556,0l-8.663,8.45a4.056,4.056,0,0,0,0,5.79,4.2,4.2,0,0,0,5.878,0l8.662-8.44a2.9,2.9,0,0,0,0-4.14,3,3,0,0,0-4.2,0l-6.512,6.42a0.582,0.582,0,0,0,0,.83,0.6,0.6,0,0,0,.839,0l6.513-6.42a1.791,1.791,0,0,1,2.519,0,1.737,1.737,0,0,1,0,2.48l-8.663,8.45a3,3,0,0,1-4.2,0,2.909,2.909,0,0,1,0-4.15l8.578-8.35a4.179,4.179,0,0,1,5.877,0,4.049,4.049,0,0,1,0,5.79l-6.428,6.34a0.58,0.58,0,0,0,0,.83,0.6,0.6,0,0,0,.84,0l6.511-6.42A5.225,5.225,0,0,0,430.434,1881.54Z" transform="translate(-413 -1880.03)"/>
</svg>
